<?xml version="1.0" encoding="UTF-8"?>
<!DOCTYPE svg PUBLIC "-//W3C//DTD SVG 1.1//EN" "http://www.w3.org/Graphics/SVG/1.1/DTD/svg11.dtd">
<!-- Creator: CorelDRAW 2021 (64-Bit) -->
<svg xmlns="http://www.w3.org/2000/svg" xml:space="preserve" width="2.67549in" height="0.662154in" version="1.1" style="shape-rendering:geometricPrecision; text-rendering:geometricPrecision; image-rendering:optimizeQuality; fill-rule:evenodd; clip-rule:evenodd"
viewBox="0 0 138.76 34.34"
 xmlns:xlink="http://www.w3.org/1999/xlink"
 xmlns:xodm="http://www.corel.com/coreldraw/odm/2003">
 <defs>
  <style type="text/css">
   <![CDATA[
    .fil0 {fill:#1942F5}
    .fil1 {fill:white}
    .fil2 {fill:#1942F5;fill-rule:nonzero}
   ]]>
  </style>
 </defs>
 <g id="Layer_x0020_1">
  <metadata id="CorelCorpID_0Corel-Layer"/>
  <rect class="fil0" x="-0" y="-0" width="33.89" height="34.34" rx="10.09" ry="10.89"/>
  <g id="_2696895254400">
   <path class="fil1" d="M27.98 28.11l-0.12 -22.06 -4.01 0.29 -0.18 8.41c-4.34,-4.1 -9.69,-9.29 -17.71,-8.46l0.22 3.84c7.5,1.25 9.53,2.36 13.4,6.54 7.57,8.17 0.01,12.27 8.39,11.45z"/>
   <path class="fil1" d="M10.29 19.82c4.68,2 4.59,6.74 5.82,8.46l3.39 0.02c0.4,-7.22 -6.21,-14.44 -13.58,-13.56l0.12 13.52 4 -0.22 0.26 -8.22z"/>
  </g>
  <path class="fil2" d="M46.92 27.59l-1.84 0c-0.34,0 -0.5,-0.17 -0.5,-0.5l0 -18.04c0,-0.34 0.17,-0.5 0.5,-0.5l1.66 0c0.32,0 0.53,0.11 0.65,0.33l7.17 12.89 0.12 0 0 -12.71c0,-0.34 0.17,-0.5 0.5,-0.5l1.84 0c0.34,0 0.5,0.17 0.5,0.5l0 18.04c0,0.34 -0.17,0.5 -0.5,0.5l-1.6 0c-0.32,0 -0.57,-0.16 -0.77,-0.47l-7.11 -12.74 -0.12 0 0 12.71c0,0.34 -0.17,0.5 -0.5,0.5z"/>
  <path id="_1" class="fil2" d="M71.62 27.59l-6.4 0c-1.46,0 -2.59,-0.4 -3.39,-1.21 -0.8,-0.81 -1.2,-1.94 -1.2,-3.38l0 -5.93c0,-1.46 0.4,-2.59 1.2,-3.39 0.8,-0.8 1.93,-1.2 3.39,-1.2l2.43 0c1.46,0 2.6,0.4 3.41,1.2 0.81,0.8 1.21,1.93 1.21,3.39l0 3.76c0,0.36 -0.18,0.53 -0.53,0.53l-7.94 0c-0.22,0 -0.33,0.1 -0.33,0.3l0 1.27c0,1.44 0.72,2.16 2.16,2.16l5.98 0c0.36,0 0.53,0.18 0.53,0.53l0 1.48c0,0.32 -0.18,0.47 -0.53,0.47zm-7.82 -8.24l5.3 0c0.2,0 0.3,-0.1 0.3,-0.3l0 -1.9c0,-0.75 -0.17,-1.3 -0.5,-1.64 -0.34,-0.35 -0.88,-0.52 -1.63,-0.52l-1.63 0c-0.75,0 -1.29,0.17 -1.63,0.52 -0.34,0.35 -0.5,0.89 -0.5,1.64l0 1.9c0,0.2 0.1,0.3 0.3,0.3z"/>
  <path id="_2" class="fil2" d="M76.32 27.59l-2.25 0c-0.43,0 -0.54,-0.17 -0.33,-0.5l3.94 -7.2 -3.85 -6.9c-0.22,-0.34 -0.13,-0.5 0.27,-0.5l2.28 0c0.38,0 0.63,0.17 0.77,0.5l2.4 5.1 0.12 0 2.25 -5.1c0.14,-0.34 0.39,-0.5 0.74,-0.5l2.25 0c0.41,0 0.51,0.17 0.3,0.5l-3.73 6.87 4.03 7.23c0.2,0.34 0.11,0.5 -0.27,0.5l-2.34 0c-0.34,0 -0.57,-0.17 -0.71,-0.5l-2.52 -5.24 -0.12 0 -2.49 5.24c-0.14,0.34 -0.39,0.5 -0.74,0.5z"/>
  <path id="_3" class="fil2" d="M87.83 14.99l-1.42 0c-0.2,0 -0.33,-0.03 -0.4,-0.1 -0.07,-0.07 -0.1,-0.19 -0.1,-0.37l0 -1.54c0,-0.34 0.17,-0.5 0.5,-0.5l1.42 0c0.2,0 0.3,-0.1 0.3,-0.3l0 -2.67c0,-0.34 0.18,-0.5 0.53,-0.5l1.87 0c0.34,0 0.5,0.17 0.5,0.5l0 2.67c0,0.2 0.11,0.3 0.33,0.3l2.76 0c0.36,0 0.53,0.17 0.53,0.5l0 1.54c0,0.32 -0.18,0.47 -0.53,0.47l-2.76 0c-0.22,0 -0.33,0.1 -0.33,0.3l0 7.61c0,1.44 0.74,2.16 2.22,2.16l1.16 0c0.36,0 0.53,0.17 0.53,0.5l0 1.54c0,0.32 -0.18,0.47 -0.53,0.47l-1.6 0c-1.46,0 -2.61,-0.4 -3.44,-1.19 -0.83,-0.79 -1.24,-1.91 -1.24,-3.35l0 -7.76c0,-0.2 -0.1,-0.3 -0.3,-0.3z"/>
  <path id="_4" class="fil2" d="M99.52 27.59l-1.87 0c-0.34,0 -0.5,-0.17 -0.5,-0.5l0 -14.1c0,-0.34 0.17,-0.5 0.5,-0.5l1.87 0c0.34,0 0.5,0.17 0.5,0.5l0 1.13 0.12 0c0.2,-0.49 0.58,-0.89 1.14,-1.19 0.56,-0.3 1.19,-0.44 1.88,-0.44l1.1 0c0.34,0 0.5,0.17 0.5,0.5l0 1.54c0,0.38 -0.17,0.53 -0.5,0.47l-1.78 0c-1.64,0 -2.46,0.9 -2.46,2.7l0 9.39c0,0.34 -0.17,0.5 -0.5,0.5z"/>
  <path id="_5" class="fil2" d="M106.58 9.96l0 -2.7c0,-0.32 0.16,-0.47 0.47,-0.47l1.93 0c0.32,0 0.47,0.16 0.47,0.47l0 2.7c0,0.34 -0.16,0.5 -0.47,0.5l-1.93 0c-0.32,0 -0.47,-0.17 -0.47,-0.5zm0 17.13l0 -14.1c0,-0.34 0.16,-0.5 0.47,-0.5l1.9 0c0.34,0 0.5,0.17 0.5,0.5l0 14.1c0,0.2 -0.03,0.33 -0.1,0.4 -0.07,0.07 -0.19,0.1 -0.37,0.1l-1.9 0c-0.34,0 -0.5,-0.17 -0.5,-0.5z"/>
  <path id="_6" class="fil2" d="M118.33 27.59l-1.51 0c-1.42,0 -2.51,-0.4 -3.27,-1.2 -0.76,-0.8 -1.14,-1.93 -1.14,-3.39l0 -5.93c0,-1.48 0.38,-2.62 1.14,-3.41 0.76,-0.79 1.85,-1.19 3.27,-1.19l1.51 0c1.52,0 2.51,0.52 2.96,1.57l0.12 0 0 -6.78c0,-0.34 0.17,-0.5 0.5,-0.5l1.9 0c0.34,0 0.5,0.17 0.5,0.5l0 19.82c0,0.34 -0.17,0.5 -0.5,0.5l-1.9 0c-0.34,0 -0.5,-0.17 -0.5,-0.5l0 -1.07 -0.12 0c-0.45,1.05 -1.44,1.57 -2.96,1.57zm3.08 -5.04l0 -5.04c0,-1.68 -0.81,-2.52 -2.43,-2.52l-1.57 0c-1.42,0 -2.13,0.73 -2.13,2.19l0 5.69c0,1.46 0.71,2.19 2.13,2.19l1.57 0c1.62,0 2.43,-0.84 2.43,-2.52z"/>
  <path id="_7" class="fil2" d="M138.11 27.59l-6.4 0c-1.46,0 -2.59,-0.4 -3.39,-1.21 -0.8,-0.81 -1.2,-1.94 -1.2,-3.38l0 -5.93c0,-1.46 0.4,-2.59 1.2,-3.39 0.8,-0.8 1.93,-1.2 3.39,-1.2l2.43 0c1.46,0 2.6,0.4 3.41,1.2 0.81,0.8 1.21,1.93 1.21,3.39l0 3.76c0,0.36 -0.18,0.53 -0.53,0.53l-7.94 0c-0.22,0 -0.33,0.1 -0.33,0.3l0 1.27c0,1.44 0.72,2.16 2.16,2.16l5.98 0c0.36,0 0.53,0.18 0.53,0.53l0 1.48c0,0.32 -0.18,0.47 -0.53,0.47zm-7.82 -8.24l5.3 0c0.2,0 0.3,-0.1 0.3,-0.3l0 -1.9c0,-0.75 -0.17,-1.3 -0.5,-1.64 -0.34,-0.35 -0.88,-0.52 -1.63,-0.52l-1.63 0c-0.75,0 -1.29,0.17 -1.63,0.52 -0.34,0.35 -0.5,0.89 -0.5,1.64l0 1.9c0,0.2 0.1,0.3 0.3,0.3z"/>
 </g>
</svg>
